# xmcd
#
# Track frame offsets: 
#        150
#        15464
#        28393
#        55954
#        69897
#        87097
#        124690
#        155418
#        185084
#        213049
#
# Disc length: 3723 seconds
#
# Revision: 0
# Processed by: cddbd v1.4PL0 Copyright (c) Steve Scherf et al.
# Submitted via: ExactAudioCopy v0.90b4
#
DISCID=7e0e890a
DTITLE=Almost Acoustic Band - Almost Acoustic Band
DYEAR=2002
DGENRE=Bluegrass
TTITLE0=Ash Grove
TTITLE1=Banks of the Suwanee
TTITLE2=Zion
TTITLE3=Struggler's Blues
TTITLE4=One Lift
TTITLE5=Barefoot
TTITLE6=Unification
TTITLE7=Mine, Mine, Mine
TTITLE8=Rainbow Rebel
TTITLE9=Sun Shines On Me
EXTD=Various live tracks recorded from 3-2 through 6-2 2002.\nhttp://w
EXTD=ww.almostacousticband.com/\n
EXTT0=
EXTT1=
EXTT2=
EXTT3=
EXTT4=
EXTT5=
EXTT6=
EXTT7=
EXTT8=
EXTT9=
PLAYORDER=
